<svg xmlns="http://www.w3.org/2000/svg"><defs><symbol id="valley_mouth" viewBox="0 0 24 24"><path d="M1 22L2 15L5 13L5 8L8 3L10 5L10 11L8 14L8 19L6 22Z" fill="#b9c2ce" stroke="#29333a" stroke-width="0.8" stroke-linecap="round" stroke-linejoin="round"/><path d="M8 3L10 5L10 11L8 14L8 19L6 22L6 15L8 10Z" fill="#8193a4" stroke="none" stroke-width="0.8" stroke-linecap="round" stroke-linejoin="round"/><path d="M15 22L16 17L14 13L15 8L18 4L20 6L20 13L22 16L23 22Z" fill="#b9c2ce" stroke="#29333a" stroke-width="0.8" stroke-linecap="round" stroke-linejoin="round"/><path d="M18 4L20 6L20 13L22 16L23 22H20L18 16L18 10Z" fill="#8193a4" stroke="none" stroke-width="0.8" stroke-linecap="round" stroke-linejoin="round"/><path d="M9 22Q13 19 12 15L12 12" fill="none" stroke="#ae9569" stroke-width="1.2" stroke-linecap="round" stroke-linejoin="round"/><path d="M3 17L5 16 M16 10L17 8" fill="none" stroke="#e7ecec" stroke-width="0.7" stroke-linecap="round" stroke-linejoin="round"/></symbol><symbol id="capital" viewBox="0 0 24 24"><path d="M3 17H21V22H3Z" fill="#ead9ae" stroke="#29333a" stroke-width="0.8" stroke-linecap="round" stroke-linejoin="round"/><path d="M6 10H18V16H6Z" fill="#e5cc95" stroke="#29333a" stroke-width="0.8" stroke-linecap="round" stroke-linejoin="round"/><path d="M1 17Q4 16 5 13H19Q20 16 23 17Z" fill="#8f7955" stroke="#29333a" stroke-width="0.8" stroke-linecap="round" stroke-linejoin="round"/><path d="M4 10Q8 9 9 5H15Q16 9 20 10Z" fill="#a38a59" stroke="#29333a" stroke-width="0.8" stroke-linecap="round" stroke-linejoin="round"/><path d="M12 1V5 M9 3H15" fill="none" stroke="#29333a" stroke-width="0.8" stroke-linecap="round" stroke-linejoin="round"/><path d="M10 22V18Q12 16 14 18V22" fill="#39423f" stroke="#29333a" stroke-width="0.8" stroke-linecap="round" stroke-linejoin="round"/><path d="M8 11V13 M12 11V13 M16 11V13" fill="none" stroke="#eadab2" stroke-width="0.8" stroke-linecap="round" stroke-linejoin="round"/></symbol><symbol id="city" viewBox="0 0 24 24"><path d="M3 14H21V22H3Z" fill="#eee5d4" stroke="#29333a" stroke-width="0.8" stroke-linecap="round" stroke-linejoin="round"/><path d="M7 9H17V14H7Z" fill="#e1d5bc" stroke="#29333a" stroke-width="0.8" stroke-linecap="round" stroke-linejoin="round"/><path d="M4 10Q7 9 8 6H16Q17 9 20 10Z" fill="#8c806d" stroke="#29333a" stroke-width="0.8" stroke-linecap="round" stroke-linejoin="round"/><path d="M1 15L4 12H20L23 15Z" fill="#b2a58d" stroke="#29333a" stroke-width="0.8" stroke-linecap="round" stroke-linejoin="round"/><path d="M10 22V18Q12 16 14 18V22" fill="#39423f" stroke="#29333a" stroke-width="0.8" stroke-linecap="round" stroke-linejoin="round"/><path d="M5 17H7 M17 17H19" fill="none" stroke="#7c786d" stroke-width="0.9" stroke-linecap="round" stroke-linejoin="round"/></symbol><symbol id="pass" viewBox="0 0 24 24"><path d="M2 9H8V22H2Z M16 9H22V22H16Z" fill="#d9c9a8" stroke="#29333a" stroke-width="0.8" stroke-linecap="round" stroke-linejoin="round"/><path d="M1 9L3 5H7L9 9Z M15 9L17 5H21L23 9Z" fill="#84775f" stroke="#29333a" stroke-width="0.8" stroke-linecap="round" stroke-linejoin="round"/><path d="M8 10H16V13H8Z" fill="#b7a27c" stroke="#29333a" stroke-width="0.8" stroke-linecap="round" stroke-linejoin="round"/><path d="M4 12H6V15H4Z M18 12H20V15H18Z" fill="#4c514d" stroke="#29333a" stroke-width="0.8" stroke-linecap="round" stroke-linejoin="round"/><path d="M3 18H7 M17 18H21" fill="none" stroke="#b09e7b" stroke-width="0.8" stroke-linecap="round" stroke-linejoin="round"/></symbol><symbol id="fort" viewBox="0 0 24 24"><path d="M2 12H5V9H8V12H16V9H19V12H22V22H2Z" fill="#c9cfd6" stroke="#29333a" stroke-width="0.8" stroke-linecap="round" stroke-linejoin="round"/><path d="M9 6H15V12H9Z" fill="#aeb9c3" stroke="#29333a" stroke-width="0.8" stroke-linecap="round" stroke-linejoin="round"/><path d="M7 6L12 2L17 6Z" fill="#758492" stroke="#29333a" stroke-width="0.8" stroke-linecap="round" stroke-linejoin="round"/><path d="M10 22V18Q12 16 14 18V22" fill="#3f4950" stroke="#29333a" stroke-width="0.8" stroke-linecap="round" stroke-linejoin="round"/><path d="M4 16H7 M17 16H20" fill="none" stroke="#818d99" stroke-width="0.8" stroke-linecap="round" stroke-linejoin="round"/></symbol><symbol id="camp" viewBox="0 0 24 24"><path d="M3 19C3 7 21 7 21 19Z" fill="#e4d6a7" stroke="#29333a" stroke-width="0.8" stroke-linecap="round" stroke-linejoin="round"/><path d="M12 9Q17 14 17 19H12Z" fill="#b6a374" stroke="none" stroke-width="0.8" stroke-linecap="round" stroke-linejoin="round"/><path d="M9 19V14Q12 12 15 14V19" fill="#4e5147" stroke="#29333a" stroke-width="0.8" stroke-linecap="round" stroke-linejoin="round"/><path d="M1 20H23 M3 20V23 M7 20V23 M17 20V23 M21 20V23" fill="none" stroke="#807655" stroke-width="1.1" stroke-linecap="round" stroke-linejoin="round"/><path d="M12 4V9 M12 4H18L16 6H12" fill="#c9b486" stroke="#29333a" stroke-width="0.8" stroke-linecap="round" stroke-linejoin="round"/></symbol><symbol id="mountain" viewBox="0 0 24 24"><path d="M1 22L8 10L11 14L16 4L23 22Z" fill="#b9c2ce" stroke="#29333a" stroke-width="0.8" stroke-linecap="round" stroke-linejoin="round"/><path d="M16 4L16 22H23Z" fill="#8193a4" stroke="none" stroke-width="0.8" stroke-linecap="round" stroke-linejoin="round"/><path d="M8 10L8 22H14Z" fill="#95a6b6" stroke="none" stroke-width="0.8" stroke-linecap="round" stroke-linejoin="round"/><path d="M13 10L16 4L19 12L16 10L15 12Z" fill="#e7ecec" stroke="#29333a" stroke-width="0.5" stroke-linecap="round" stroke-linejoin="round"/></symbol></defs></svg>