<svg xmlns="http://www.w3.org/2000/svg" viewBox="0 0 24 24"><path d="M1 22L2 15L5 13L5 8L8 3L10 5L10 11L8 14L8 19L6 22Z" fill="#b9c2ce" stroke="#29333a" stroke-width="0.8" stroke-linecap="round" stroke-linejoin="round"/><path d="M8 3L10 5L10 11L8 14L8 19L6 22L6 15L8 10Z" fill="#8193a4" stroke="none" stroke-width="0.8" stroke-linecap="round" stroke-linejoin="round"/><path d="M15 22L16 17L14 13L15 8L18 4L20 6L20 13L22 16L23 22Z" fill="#b9c2ce" stroke="#29333a" stroke-width="0.8" stroke-linecap="round" stroke-linejoin="round"/><path d="M18 4L20 6L20 13L22 16L23 22H20L18 16L18 10Z" fill="#8193a4" stroke="none" stroke-width="0.8" stroke-linecap="round" stroke-linejoin="round"/><path d="M9 22Q13 19 12 15L12 12" fill="none" stroke="#ae9569" stroke-width="1.2" stroke-linecap="round" stroke-linejoin="round"/><path d="M3 17L5 16 M16 10L17 8" fill="none" stroke="#e7ecec" stroke-width="0.7" stroke-linecap="round" stroke-linejoin="round"/></svg>